<?xml version="1.0" encoding="UTF-8"?>
<svg xmlns="http://www.w3.org/2000/svg" width="861" height="861" viewBox="0 0 861 861" shape-rendering="geometricPrecision">
  <defs>
    <linearGradient id="anvilGrad" x1="258" y1="387" x2="672" y2="534" gradientUnits="userSpaceOnUse">
      <stop offset="0" stop-color="#C9CDD1"/>
      <stop offset="0.6" stop-color="#A9AFB5"/>
      <stop offset="1" stop-color="#8A929A"/>
    </linearGradient>
  </defs>

  <!-- Sparks -->
  <path d="M 330.02 276.82 L 329.28 277.15 L 328.78 278.00 L 325.92 287.75 L 323.73 293.58 L 321.57 297.50 L 319.47 300.25 L 316.50 302.67 L 310.75 305.30 L 302.27 307.27 L 301.45 308.05 L 302.27 308.83 L 310.00 311.65 L 313.50 313.32 L 316.50 315.38 L 319.27 318.25 L 321.15 321.00 L 322.85 324.50 L 325.20 333.25 L 326.60 340.23 L 327.17 341.05 L 327.78 340.23 L 331.33 327.50 L 333.85 322.00 L 335.88 319.17 L 339.25 316.17 L 344.75 313.43 L 353.50 311.48 L 354.68 310.58 L 354.18 309.97 L 349.00 308.18 L 342.25 304.97 L 339.50 303.07 L 336.80 300.25 L 333.30 293.50 L 332.03 288.75 L 330.75 281.50 L 330.60 277.52 Z M 272.08 204.72 L 271.73 205.75 L 272.50 217.25 L 272.33 226.75 L 271.20 235.75 L 268.55 244.25 L 264.93 249.75 L 257.75 255.95 L 241.57 265.42 L 245.25 266.60 L 252.75 267.07 L 263.75 269.02 L 269.00 270.87 L 273.50 273.70 L 278.15 278.25 L 281.27 282.75 L 287.77 294.50 L 293.20 306.98 L 294.23 307.78 L 294.73 306.75 L 294.82 283.50 L 295.97 276.00 L 298.73 268.00 L 302.02 263.10 L 308.00 257.32 L 319.00 250.75 L 326.73 247.12 L 327.43 246.30 L 326.25 245.77 L 316.00 245.75 L 305.75 244.65 L 299.75 243.18 L 293.25 239.77 L 288.70 235.35 L 284.75 229.75 L 273.08 205.52 Z" fill="#F39C12" fill-rule="evenodd"/>

  <!-- Hammer -->
  <path d="M 639.37 82.82 L 628.75 77.30 L 616.75 79.14 L 440.50 175.43 L 436.51 172.25 L 409.70 110.00 L 404.00 103.31 L 397.50 99.85 L 390.25 99.32 L 383.50 101.26 L 307.25 136.02 L 302.50 144.00 L 302.81 154.75 L 380.49 333.37 L 389.50 339.07 L 401.00 338.98 L 473.75 308.13 L 481.64 302.50 L 485.58 294.25 L 485.24 285.00 L 461.96 231.50 L 463.30 226.81 L 643.00 148.29 L 654.99 141.48 L 659.77 133.50 L 659.73 122.75 Z" fill="#0B0B0C" fill-rule="evenodd"/>

  <!-- Anvil -->
  <path d="M 185.80 387.89 L 185.89 390.50 L 189.17 398.25 L 192.27 404.00 L 197.45 411.50 L 206.79 421.57 L 217.50 430.05 L 225.75 435.30 L 232.75 439.00 L 247.25 444.74 L 275.00 453.22 L 278.43 453.67 L 280.19 452.61 L 280.75 450.25 L 280.75 390.50 L 280.39 388.71 L 279.39 387.55 L 277.25 387.00 L 188.00 386.98 L 186.71 387.19 Z M 304.42 379.21 L 303.96 457.90 L 326.50 470.07 L 338.67 482.00 L 346.94 499.75 L 348.48 519.00 L 344.34 536.25 L 335.67 552.75 L 311.25 574.15 L 289.70 583.33 L 289.70 598.16 L 575.00 599.00 L 578.59 597.76 L 578.04 583.59 L 559.50 575.39 L 545.25 565.38 L 533.30 553.25 L 525.03 540.00 L 519.70 519.50 L 520.17 503.75 L 523.44 488.50 L 530.11 474.00 L 540.29 459.75 L 551.75 448.30 L 566.50 437.30 L 601.50 420.01 L 645.14 408.58 L 646.50 405.25 L 645.29 378.67 Z" fill="url(#anvilGrad)" fill-rule="evenodd"/>
  <path d="M 163.50 369.75 L 162.31 384.75 L 169.19 408.75 L 180.26 426.75 L 195.75 442.32 L 212.00 454.19 L 235.50 465.39 L 308.50 485.57 L 317.88 492.30 L 323.65 501.25 L 325.20 521.00 L 316.08 540.00 L 299.00 554.24 L 272.00 564.35 L 266.99 569.75 L 266.08 611.75 L 269.36 618.58 L 276.26 621.74 L 595.79 620.50 L 602.20 611.25 L 601.33 571.00 L 596.00 565.21 L 567.00 553.61 L 550.61 539.25 L 542.33 519.50 L 545.01 495.00 L 557.74 474.00 L 578.50 456.87 L 612.25 440.32 L 660.00 429.18 L 666.61 423.00 L 668.96 414.00 L 668.68 365.00 L 665.15 358.38 L 658.50 355.27 L 292.50 355.25 L 279.00 364.20 L 172.50 364.27 Z M 185.50 387.51 L 187.50 386.73 L 277.50 386.75 L 279.75 387.30 L 280.67 388.38 L 281.00 390.00 L 281.00 450.75 L 280.45 452.99 L 278.49 454.02 L 274.50 453.37 L 245.75 444.44 L 236.75 441.05 L 230.25 438.00 L 216.00 429.30 L 206.52 421.61 L 196.81 411.00 L 191.86 403.75 L 187.58 395.50 L 185.30 389.25 Z M 304.17 378.85 L 645.65 378.42 L 645.50 408.77 L 602.75 419.80 L 567.75 436.73 L 552.25 448.11 L 540.10 460.25 L 530.49 473.75 L 523.57 488.75 L 520.07 506.25 L 519.94 520.00 L 525.89 541.25 L 534.13 554.00 L 546.25 565.95 L 560.25 575.57 L 578.40 583.45 L 578.85 598.12 L 289.33 598.39 L 289.50 582.99 L 311.25 573.93 L 335.63 552.50 L 343.61 537.50 L 348.23 519.50 L 346.68 499.50 L 338.63 482.25 L 326.75 470.48 L 303.68 458.20 Z" fill="#0B0B0C" fill-rule="evenodd"/>

  <!-- Wordmark (text) -->
  <text x="430.50" y="808.00" text-anchor="middle"
        font-family="Montserrat, Inter, Arial Black, Arial, sans-serif"
        font-size="182.36" font-weight="900" letter-spacing="6" fill="#0B0B0C">FORGE</text>
</svg>
